<?xml version="1.0" standalone="no"?>
<!DOCTYPE svg PUBLIC "-//W3C//DTD SVG 20010904//EN"
 "http://www.w3.org/TR/2001/REC-SVG-20010904/DTD/svg10.dtd">
<svg version="1.0" xmlns="http://www.w3.org/2000/svg"
 width="800.000000pt" height="463.000000pt" viewBox="0 0 800.000000 463.000000"
 preserveAspectRatio="xMidYMid meet">

<g transform="translate(0.000000,463.000000) scale(0.100000,-0.100000)"
fill="#000000" stroke="none">
<path d="M402 4228 c-17 -17 -17 -3359 0 -3376 17 -17 6729 -17 6746 0 17 17
17 3359 0 3376 -17 17 -6729 17 -6746 0z m828 -410 l0 -393 -390 390 c-214
214 -390 391 -390 392 0 2 176 3 390 3 l390 0 0 -392z m820 389 c0 -1 -178
-180 -395 -397 l-395 -395 0 398 0 397 395 0 c217 0 395 -1 395 -3z m870 -392
c0 -217 -1 -395 -3 -395 -1 0 -180 178 -397 395 l-395 395 398 0 397 0 0 -395z
m820 392 c0 -1 -178 -180 -395 -397 l-395 -395 0 398 0 397 395 0 c217 0 395
-1 395 -3z m860 -389 l0 -393 -383 380 c-211 209 -386 386 -390 393 -5 9 75
12 383 12 l390 0 0 -392z m820 389 c0 -1 -178 -180 -395 -397 l-395 -395 0
398 0 397 395 0 c217 0 395 -1 395 -3z m870 -392 c0 -217 -1 -395 -3 -395 -1
0 -180 178 -397 395 l-395 395 398 0 397 0 0 -395z m810 392 c0 -1 -175 -178
-390 -392 l-390 -390 0 393 0 392 390 0 c215 0 390 -1 390 -3z m-6285 -417
l390 -390 -393 0 -392 0 0 390 c0 215 1 390 3 390 1 0 178 -175 392 -390z
m1265 0 l0 -390 -397 0 -398 0 390 390 c214 215 393 390 397 390 5 0 8 -175 8
-390z m425 0 l390 -390 -393 0 -392 0 0 390 c0 215 1 390 3 390 1 0 178 -175
392 -390z m1255 0 l0 -390 -392 0 -393 0 390 390 c214 215 391 390 392 390 2
0 3 -175 3 -390z m425 0 l390 -390 -393 0 -392 0 0 390 c0 215 1 390 3 390 1
0 178 -175 392 -390z m1255 0 l0 -390 -392 0 -393 0 390 390 c214 215 391 390
392 390 2 0 3 -175 3 -390z m435 0 l390 -390 -393 0 -392 0 0 390 c0 215 1
390 3 390 1 0 178 -175 392 -390z m1255 0 l0 -390 -392 0 -393 0 390 390 c214
215 391 390 392 390 2 0 3 -175 3 -390z m-5920 -423 c0 -1 -178 -180 -395
-397 l-395 -395 0 398 0 397 395 0 c217 0 395 -1 395 -3z m865 -10 c3 -6 4
-184 3 -395 l-3 -382 -395 395 -395 395 393 0 c305 0 394 -3 397 -13z m815 5
c0 -4 -175 -183 -390 -397 l-390 -390 0 398 0 397 390 0 c215 0 390 -3 390 -8z
m870 -389 l0 -398 -390 390 c-214 214 -390 393 -390 397 0 5 176 8 390 8 l390
0 0 -397z m820 394 c0 -1 -178 -180 -395 -397 l-395 -395 0 398 0 397 395 0
c217 0 395 -1 395 -3z m860 -389 l0 -393 -390 390 c-214 214 -390 391 -390
392 0 2 176 3 390 3 l390 0 0 -392z m820 389 c0 -1 -175 -178 -390 -392 l-390
-390 0 393 0 392 390 0 c215 0 390 -1 390 -3z m870 -392 c0 -217 -1 -395 -3
-395 -1 0 -180 178 -397 395 l-395 395 398 0 397 0 0 -395z m-5900 -25 l0
-390 -392 0 -393 0 390 390 c214 215 391 390 392 390 2 0 3 -175 3 -390z m425
0 l390 -390 -393 0 -392 0 0 390 c0 215 1 390 3 390 1 0 178 -175 392 -390z
m1265 0 l0 -390 -392 0 -393 0 390 390 c214 215 391 390 392 390 2 0 3 -175 3
-390z m425 0 l390 -390 -393 0 -392 0 0 390 c0 215 1 390 3 390 1 0 178 -175
392 -390z m1255 0 l0 -390 -392 0 -393 0 390 390 c214 215 391 390 392 390 2
0 3 -175 3 -390z m425 0 l390 -390 -393 0 -392 0 0 390 c0 215 1 390 3 390 1
0 178 -175 392 -390z m1265 0 l0 -390 -392 0 -393 0 390 390 c214 215 391 390
392 390 2 0 3 -175 3 -390z m425 0 l390 -390 -393 0 -392 0 0 390 c0 215 1
390 3 390 1 0 178 -175 392 -390z m-5485 -822 l0 -393 -390 390 c-214 214
-390 391 -390 392 0 2 176 3 390 3 l390 0 0 -392z m819 390 c-3 -2 -181 -178
-397 -393 l-392 -390 0 393 0 392 397 0 c218 0 394 -1 392 -2z m871 -390 l0
-393 -390 390 c-214 214 -390 391 -390 392 0 2 176 3 390 3 l390 0 0 -392z
m810 389 c0 -1 -175 -178 -390 -392 l-390 -390 0 393 0 392 390 0 c215 0 390
-1 390 -3z m870 -389 l0 -393 -390 390 c-214 214 -390 391 -390 392 0 2 176 3
390 3 l390 0 0 -392z m810 389 c0 -1 -175 -178 -390 -392 l-390 -390 0 393 0
392 390 0 c215 0 390 -1 390 -3z m880 -389 l0 -393 -390 390 c-214 214 -390
391 -390 392 0 2 176 3 390 3 l390 0 0 -392z m810 389 c0 -1 -175 -178 -390
-392 l-390 -390 0 393 0 392 390 0 c215 0 390 -1 390 -3z m-6280 -412 l395
-395 -398 0 -397 0 0 395 c0 217 1 395 3 395 1 0 180 -178 397 -395z m1255
-382 c-3 -10 -92 -13 -397 -13 l-393 0 395 395 395 395 3 -382 c1 -211 0 -389
-3 -395z m1685 382 l0 -395 -390 0 c-214 0 -390 3 -390 7 0 7 771 783 777 783
2 0 3 -178 3 -395z m430 0 l395 -395 -398 0 -397 0 0 395 c0 217 1 395 3 395
1 0 180 -178 397 -395z m2940 0 l0 -395 -397 0 -398 0 395 395 c217 217 396
395 397 395 2 0 3 -178 3 -395z m-4625 -5 l390 -390 -393 0 -392 0 0 390 c0
215 1 390 3 390 1 0 178 -175 392 -390z m2935 0 l0 -390 -392 0 -393 0 390
390 c214 215 391 390 392 390 2 0 3 -175 3 -390z m435 0 l390 -390 -393 0
-392 0 0 390 c0 215 1 390 3 390 1 0 178 -175 392 -390z m-4666 -422 c-3 -2
-181 -178 -397 -393 l-392 -390 0 393 0 392 397 0 c218 0 394 -1 392 -2z m871
-388 c0 -214 -3 -390 -8 -390 -4 0 -183 176 -397 390 l-390 390 398 0 397 0 0
-390z m810 387 c0 -1 -175 -178 -390 -392 l-390 -390 0 393 0 392 390 0 c215
0 390 -1 390 -3z m870 -389 l0 -393 -390 390 c-214 214 -390 391 -390 392 0 2
176 3 390 3 l390 0 0 -392z m810 389 c0 -1 -175 -178 -390 -392 l-390 -390 0
393 0 392 390 0 c215 0 390 -1 390 -3z m870 -389 l0 -393 -390 390 c-214 214
-390 391 -390 392 0 2 176 3 390 3 l390 0 0 -392z m820 389 c0 -1 -175 -178
-390 -392 l-390 -390 0 393 0 392 390 0 c215 0 390 -1 390 -3z m870 -389 l0
-393 -390 390 c-214 214 -390 391 -390 392 0 2 176 3 390 3 l390 0 0 -392z
m-5470 -23 l395 -395 -398 0 -397 0 0 395 c0 217 1 395 3 395 1 0 180 -178
397 -395z m1260 0 l0 -395 -397 0 -398 0 395 395 c217 217 396 395 397 395 2
0 3 -178 3 -395z m2110 0 l395 -395 -398 0 -397 0 0 395 c0 217 1 395 3 395 1
0 180 -178 397 -395z m1260 0 l0 -395 -397 0 -398 0 395 395 c217 217 396 395
397 395 2 0 3 -178 3 -395z m-5060 -5 l0 -390 -392 0 -393 0 390 390 c214 215
391 390 392 390 2 0 3 -175 3 -390z m2283 -160 c109 -107 203 -203 208 -212 9
-17 -12 -18 -381 -18 l-390 0 0 392 0 393 183 -180 c100 -99 271 -268 380
-375z m1087 160 l0 -390 -392 0 -393 0 390 390 c214 215 391 390 392 390 2 0
3 -175 3 -390z m2115 0 l390 -390 -393 0 -392 0 0 390 c0 215 1 390 3 390 1 0
178 -175 392 -390z"/>
</g>
</svg>
